<svg xmlns="http://www.w3.org/2000/svg" viewBox="0 0 146.35 140.81"><defs><style>.cls-1{fill:#238c5b;}.cls-2{fill:#297358;}.cls-3{fill:#3b5954;}</style></defs><title>logo only</title><g id="Layer_2" data-name="Layer 2"><g id="Layer_1-2" data-name="Layer 1"><polygon class="cls-1" points="32.49 134.59 81.43 106.08 66.17 106.08 31.13 122.63 32.49 134.59"/><polygon class="cls-2" points="81.43 106.08 81.43 112.31 32.49 140.81 32.49 133.32 81.43 106.08"/><polygon class="cls-2" points="0 140.81 32.49 140.81 83.05 52.66 81.46 0 0 140.81"/><polygon class="cls-1" points="81.22 55.85 81.46 0 146.35 112.4 113.79 112.4 81.22 55.85"/><polygon class="cls-3" points="81.46 0 81.46 11.36 122.11 70.41 81.46 0"/><polygon class="cls-3" points="81.52 0 81.52 11.36 40.87 70.41 81.52 0"/><polygon class="cls-1" points="71.94 94.89 81.22 94.89 81.22 78.82 71.94 94.89"/><polygon class="cls-2" points="81.22 78.82 81.22 94.89 90.5 94.89 81.22 78.82"/></g></g></svg>