<svg xmlns="http://www.w3.org/2000/svg" viewBox="0 0 687.41 140.81"><defs><style>.cls-1{fill:#c7dce7;}.cls-2{fill:#a5bac9;}.cls-3{fill:#94a9b6;}.cls-4{fill:#fff;}</style></defs><title>Asset 8</title><g id="Layer_2" data-name="Layer 2"><g id="Layer_1-2" data-name="Layer 1"><polygon class="cls-1" points="32.49 134.59 81.43 106.08 66.17 106.08 31.13 122.63 32.49 134.59"/><polygon class="cls-2" points="81.43 106.08 81.43 112.31 32.49 140.81 32.49 133.32 81.43 106.08"/><polygon class="cls-2" points="0 140.81 32.49 140.81 83.05 52.66 81.46 0 0 140.81"/><polygon class="cls-1" points="81.22 55.85 81.46 0 146.35 112.4 113.78 112.4 81.22 55.85"/><polygon class="cls-3" points="81.46 0 81.46 11.36 122.11 70.41 81.46 0"/><polygon class="cls-3" points="81.52 0 81.52 11.36 40.87 70.41 81.52 0"/><polygon class="cls-1" points="71.94 94.89 81.22 94.89 81.22 78.82 71.94 94.89"/><polygon class="cls-2" points="81.22 78.82 81.22 94.89 90.5 94.89 81.22 78.82"/><path class="cls-4" d="M182.5,59.91l-5.21-9.25a60.6,60.6,0,0,1,9.42-4.38,36.53,36.53,0,0,1,13-2.14q10.08,0,16.41,4.39t6.35,12.56V100H209.88V92.15a15.49,15.49,0,0,1-7.35,6.7,26.15,26.15,0,0,1-11.14,2.31q-8.29,0-13.69-4.27t-5.39-12.33q0-8.53,6.34-13.33t17-4.8a27.3,27.3,0,0,1,8.12,1.12,30.69,30.69,0,0,1,6.1,2.55V62.52a6.64,6.64,0,0,0-3.14-5.87,13.57,13.57,0,0,0-7.64-2.08,24.27,24.27,0,0,0-10.2,2A54.31,54.31,0,0,0,182.5,59.91Zm2.73,23.94a6.35,6.35,0,0,0,2.9,5.69,12.81,12.81,0,0,0,7.17,1.9,17.71,17.71,0,0,0,10.43-2.91q4.16-2.9,4.15-10.13V77.33a26.66,26.66,0,0,0-12.33-2.72c-4.1,0-7.19.83-9.24,2.49A8.23,8.23,0,0,0,185.23,83.85Z"/><path class="cls-4" d="M242.71,59.91l-5.21-9.25a60.6,60.6,0,0,1,9.42-4.38,36.53,36.53,0,0,1,13-2.14q10.07,0,16.41,4.39t6.35,12.56V100H270.09V92.15a15.49,15.49,0,0,1-7.35,6.7,26.15,26.15,0,0,1-11.14,2.31q-8.29,0-13.69-4.27t-5.39-12.33q0-8.53,6.34-13.33t17-4.8A27.3,27.3,0,0,1,264,67.55a30.69,30.69,0,0,1,6.1,2.55V62.52A6.64,6.64,0,0,0,267,56.65a13.57,13.57,0,0,0-7.64-2.08,24.27,24.27,0,0,0-10.2,2A54.31,54.31,0,0,0,242.71,59.91Zm2.73,23.94a6.35,6.35,0,0,0,2.9,5.69,12.81,12.81,0,0,0,7.17,1.9,17.71,17.71,0,0,0,10.43-2.91q4.15-2.9,4.15-10.13V77.33a26.66,26.66,0,0,0-12.33-2.72c-4.1,0-7.19.83-9.24,2.49A8.2,8.2,0,0,0,245.44,83.85Z"/><path class="cls-4" d="M293.44,72.71a30.13,30.13,0,0,1,3.67-15.35,25.49,25.49,0,0,1,9.72-9.72A26.56,26.56,0,0,1,320,44.26a21.4,21.4,0,0,1,18.61,10.2V7.52h12.92V100H338.6V91A21.4,21.4,0,0,1,320,101.16a26.56,26.56,0,0,1-13.16-3.38,25.49,25.49,0,0,1-9.72-9.72A30.13,30.13,0,0,1,293.44,72.71Zm13.27,0q0,8.17,4.86,12.74A16.26,16.26,0,0,0,323.07,90a14.54,14.54,0,0,0,7.23-2,16.49,16.49,0,0,0,5.93-5.87,17.66,17.66,0,0,0,2.37-9.42,17.64,17.64,0,0,0-2.37-9.42,16.49,16.49,0,0,0-5.93-5.87,14.55,14.55,0,0,0-7.23-2A16.27,16.27,0,0,0,311.57,60Q306.71,64.53,306.71,72.71Z"/><path class="cls-4" d="M366.8,23.76a7.34,7.34,0,0,1,2.38-5.57,7.92,7.92,0,0,1,5.68-2.26,8.08,8.08,0,0,1,5.81,2.26A7.36,7.36,0,0,1,383,23.76a7.38,7.38,0,0,1-2.37,5.57,8.11,8.11,0,0,1-5.81,2.25,8,8,0,0,1-5.68-2.25A7.35,7.35,0,0,1,366.8,23.76Zm1.78,21.69h12.57V100H368.58Z"/><path class="cls-4" d="M476.92,65.36V100H464V66.78q0-5.93-2.08-9.06t-7.05-3.15c-3.48,0-6.14,1.13-8,3.38a13.44,13.44,0,0,0-2.79,8.83V100H431.16V66.78q0-5.93-2-9.06c-1.34-2.1-3.68-3.15-7-3.15q-5.22,0-8,3.38a13.44,13.44,0,0,0-2.79,8.83V100H398.8V45.45h12.57v7.94a18,18,0,0,1,6.1-6.64,16.56,16.56,0,0,1,9.19-2.49q12,0,15.65,9.6a19.55,19.55,0,0,1,7.23-7,19.84,19.84,0,0,1,9.95-2.55q8.89,0,13.16,5.4T476.92,65.36Z"/><path class="cls-4" d="M498.48,59.91l-5.21-9.25a61,61,0,0,1,9.42-4.38,36.53,36.53,0,0,1,13-2.14q10.08,0,16.42,4.39t6.34,12.56V100H525.86V92.15a15.49,15.49,0,0,1-7.35,6.7,26.12,26.12,0,0,1-11.14,2.31q-8.3,0-13.69-4.27t-5.39-12.33q0-8.53,6.34-13.33t17-4.8a27.3,27.3,0,0,1,8.12,1.12,30.69,30.69,0,0,1,6.1,2.55V62.52a6.62,6.62,0,0,0-3.14-5.87,13.57,13.57,0,0,0-7.64-2.08,24.27,24.27,0,0,0-10.2,2A54.31,54.31,0,0,0,498.48,59.91Zm2.73,23.94a6.35,6.35,0,0,0,2.9,5.69,12.81,12.81,0,0,0,7.17,1.9,17.71,17.71,0,0,0,10.43-2.91q4.15-2.9,4.15-10.13V77.33a26.66,26.66,0,0,0-12.33-2.72c-4.1,0-7.19.83-9.24,2.49A8.23,8.23,0,0,0,501.21,83.85Z"/><path class="cls-4" d="M554.9,26.48h12.68v19h9.13V56.71h-9.13V100H554.9V56.71h-9.13V45.45h9.13Z"/><path class="cls-4" d="M581.33,72.71a28.17,28.17,0,0,1,3.85-14.82,27.17,27.17,0,0,1,10.55-10,33,33,0,0,1,30,0,27.28,27.28,0,0,1,10.49,10,28.17,28.17,0,0,1,3.85,14.82,28.17,28.17,0,0,1-3.85,14.82,27.28,27.28,0,0,1-10.49,10,33,33,0,0,1-30,0,27.17,27.17,0,0,1-10.55-10A28.17,28.17,0,0,1,581.33,72.71Zm13.16,0a17,17,0,0,0,4.68,12.39,16.38,16.38,0,0,0,23.17,0A17.13,17.13,0,0,0,627,72.71q0-7.71-4.62-12.45a16.53,16.53,0,0,0-23.17,0Q594.49,65,594.49,72.71Z"/><path class="cls-4" d="M681.13,59.2A19.22,19.22,0,0,0,677.81,57a8.64,8.64,0,0,0-3.91-.78c-3.16,0-5.46,1.19-6.88,3.56s-2.13,5.53-2.13,9.48V100H652.2V45.45h12.69v6.64a18.28,18.28,0,0,1,5.69-5.75,12.54,12.54,0,0,1,6.75-2.08,16.17,16.17,0,0,1,5.57,1,11,11,0,0,1,4.51,3.08Z"/></g></g></svg>