<svg xmlns="http://www.w3.org/2000/svg" viewBox="0 0 686.88 140.81"><defs><style>.cls-1{fill:#352473;}.cls-2{fill:#3a468c;}.cls-3{fill:#091740;}</style></defs><title>Asset 3</title><g id="Layer_2" data-name="Layer 2"><g id="Layer_1-2" data-name="Layer 1"><path class="cls-1" d="M182,59.62l-5.22-9.25A61,61,0,0,1,186.18,46a36.56,36.56,0,0,1,13-2.14q10.08,0,16.42,4.39t6.34,12.56V99.68H209.36V91.86a15.44,15.44,0,0,1-7.35,6.7,26.2,26.2,0,0,1-11.15,2.31q-8.3,0-13.69-4.27t-5.39-12.33q0-8.53,6.34-13.33t17-4.8a27.3,27.3,0,0,1,8.12,1.12,31.41,31.41,0,0,1,6.11,2.55V62.23a6.63,6.63,0,0,0-3.15-5.87,13.57,13.57,0,0,0-7.64-2.08,24.22,24.22,0,0,0-10.19,2A53.5,53.5,0,0,0,182,59.62Zm2.72,23.94a6.33,6.33,0,0,0,2.91,5.69,12.77,12.77,0,0,0,7.17,1.9,17.76,17.76,0,0,0,10.43-2.91q4.14-2.89,4.15-10.13V77A26.85,26.85,0,0,0,197,74.32q-6.17,0-9.25,2.49A8.23,8.23,0,0,0,184.7,83.56Z"/><path class="cls-1" d="M242.18,59.62,237,50.37A61,61,0,0,1,246.39,46a36.56,36.56,0,0,1,13-2.14q10.08,0,16.42,4.39t6.34,12.56V99.68H269.57V91.86a15.53,15.53,0,0,1-7.35,6.7,26.2,26.2,0,0,1-11.15,2.31q-8.3,0-13.69-4.27T232,84.27q0-8.53,6.34-13.33t17-4.8a27.3,27.3,0,0,1,8.12,1.12,31.41,31.41,0,0,1,6.11,2.55V62.23a6.63,6.63,0,0,0-3.15-5.87,13.57,13.57,0,0,0-7.64-2.08,24.22,24.22,0,0,0-10.19,2A54.63,54.63,0,0,0,242.18,59.62Zm2.73,23.94a6.35,6.35,0,0,0,2.9,5.69,12.83,12.83,0,0,0,7.18,1.9,17.76,17.76,0,0,0,10.43-2.91q4.14-2.89,4.15-10.13V77a26.85,26.85,0,0,0-12.33-2.72q-6.17,0-9.25,2.49A8.23,8.23,0,0,0,244.91,83.56Z"/><path class="cls-1" d="M292.91,72.42a30.13,30.13,0,0,1,3.68-15.35,25.49,25.49,0,0,1,9.72-9.72A26.52,26.52,0,0,1,319.46,44a21.4,21.4,0,0,1,18.61,10.2V7.23H351V99.68H338.07v-9a21.4,21.4,0,0,1-18.61,10.2,26.52,26.52,0,0,1-13.15-3.38,25.49,25.49,0,0,1-9.72-9.72A30.13,30.13,0,0,1,292.91,72.42Zm13.28,0q0,8.17,4.86,12.74a16.24,16.24,0,0,0,11.49,4.57,14.55,14.55,0,0,0,7.23-2,16.41,16.41,0,0,0,5.93-5.87,17.64,17.64,0,0,0,2.37-9.42A17.66,17.66,0,0,0,335.7,63a16.41,16.41,0,0,0-5.93-5.87,14.55,14.55,0,0,0-7.23-2,16.24,16.24,0,0,0-11.49,4.57Q306.19,64.24,306.19,72.42Z"/><path class="cls-1" d="M366.28,23.47a7.36,7.36,0,0,1,2.37-5.57,8,8,0,0,1,5.69-2.26,8.13,8.13,0,0,1,5.81,2.26,7.36,7.36,0,0,1,2.37,5.57A7.38,7.38,0,0,1,380.15,29a8.13,8.13,0,0,1-5.81,2.25A8,8,0,0,1,368.65,29,7.38,7.38,0,0,1,366.28,23.47Zm1.78,21.69h12.56V99.68H368.06Z"/><path class="cls-1" d="M476.39,65.07V99.68H463.47V66.49q0-5.92-2.07-9.06t-7.06-3.15q-5.2,0-8,3.38a13.49,13.49,0,0,0-2.78,8.83V99.68H430.64V66.49q0-5.92-2-9.06t-7-3.15c-3.48,0-6.14,1.13-8,3.38a13.44,13.44,0,0,0-2.79,8.83V99.68H398.28V45.16h12.56V53.1A17.92,17.92,0,0,1,417,46.46,16.55,16.55,0,0,1,426.13,44q12,0,15.65,9.6A19.74,19.74,0,0,1,459,44q8.88,0,13.15,5.4T476.39,65.07Z"/><path class="cls-1" d="M498,59.62l-5.22-9.25A61,61,0,0,1,502.16,46a36.56,36.56,0,0,1,13-2.14q10.08,0,16.42,4.39T537.9,60.8V99.68H525.34V91.86a15.44,15.44,0,0,1-7.35,6.7,26.18,26.18,0,0,1-11.14,2.31q-8.31,0-13.7-4.27t-5.39-12.33q0-8.53,6.34-13.33t17-4.8a27.3,27.3,0,0,1,8.12,1.12,31.41,31.41,0,0,1,6.11,2.55V62.23a6.64,6.64,0,0,0-3.14-5.87,13.63,13.63,0,0,0-7.65-2.08,24.22,24.22,0,0,0-10.19,2A53.5,53.5,0,0,0,498,59.62Zm2.72,23.94a6.33,6.33,0,0,0,2.91,5.69,12.77,12.77,0,0,0,7.17,1.9,17.73,17.73,0,0,0,10.43-2.91q4.14-2.89,4.15-10.13V77A26.85,26.85,0,0,0,513,74.32q-6.17,0-9.25,2.49A8.23,8.23,0,0,0,500.68,83.56Z"/><path class="cls-1" d="M554.37,26.19h12.69v19h9.12V56.42h-9.12V99.68H554.37V56.42h-9.12V45.16h9.12Z"/><path class="cls-1" d="M580.8,72.42a28.27,28.27,0,0,1,3.85-14.82,27.17,27.17,0,0,1,10.55-10,33,33,0,0,1,30,0,27.21,27.21,0,0,1,10.49,10,28.17,28.17,0,0,1,3.85,14.82,28.17,28.17,0,0,1-3.85,14.82,27.21,27.21,0,0,1-10.49,10,33,33,0,0,1-30,0,27.17,27.17,0,0,1-10.55-10A28.27,28.27,0,0,1,580.8,72.42Zm13.16,0a17,17,0,0,0,4.68,12.39,16.38,16.38,0,0,0,23.17,0,17.09,17.09,0,0,0,4.63-12.39c0-5.14-1.54-9.28-4.63-12.45a16.53,16.53,0,0,0-23.17,0C595.52,63.14,594,67.28,594,72.42Z"/><path class="cls-1" d="M680.6,58.91a18.84,18.84,0,0,0-3.32-2.19,8.65,8.65,0,0,0-3.91-.77q-4.74,0-6.88,3.55T664.36,69v30.7H651.68V45.16h12.68V51.8a18.38,18.38,0,0,1,5.69-5.75A12.57,12.57,0,0,1,676.81,44a16.25,16.25,0,0,1,5.57,1,10.91,10.91,0,0,1,4.5,3.08Z"/><polygon class="cls-2" points="32.49 134.59 81.43 106.08 66.17 106.08 31.13 122.63 32.49 134.59"/><polygon class="cls-1" points="81.43 106.08 81.43 112.31 32.49 140.81 32.49 133.32 81.43 106.08"/><polygon class="cls-1" points="0 140.81 32.49 140.81 83.05 52.66 81.46 0 0 140.81"/><polygon class="cls-2" points="81.22 55.85 81.46 0 146.35 112.4 113.79 112.4 81.22 55.85"/><polygon class="cls-3" points="81.46 0 81.46 11.36 122.11 70.41 81.46 0"/><polygon class="cls-3" points="81.52 0 81.52 11.36 40.87 70.41 81.52 0"/><polygon class="cls-2" points="71.94 94.89 81.22 94.89 81.22 78.82 71.94 94.89"/><polygon class="cls-1" points="81.22 78.82 81.22 94.89 90.5 94.89 81.22 78.82"/></g></g></svg>